# Cambiando la resolución de un video
La idea de esta clase es cambiar la resolución de un video.

### Requisitos
En esta clase estaremos usando un video con las siguientes características.

``` bash
Input #0, mov,mp4,m4a,3gp,3g2,mj2, from 'video.mp4':=    0B
  Metadata:
    major_brand     : isom
    minor_version   : 1
    compatible_brands: isomavc1
    creation_time   : 2014-10-21T20:59:15.000000Z
  Duration: 00:22:55.23, start: 0.000000, bitrate: 702 kb/s
  Stream #0:0[0x1](und): Video: h264 (High) (avc1 / 0x31637661), yuv420p(progressive), 1280x720, 651 kb/s, 23.98 fps, 23.98 tbr, 24k tbn (default)
      Metadata:
        creation_time   : 2014-10-21T20:59:15.000000Z
        handler_name    : Video
        vendor_id       : [0][0][0][0]
  Stream #0:1[0x2](eng): Audio: aac (HE-AAC) (mp4a / 0x6134706D), 48000 Hz, stereo, fltp, 48 kb/s (default)
      Metadata:
        creation_time   : 2014-10-21T20:59:18.000000Z
        handler_name    : GPAC ISO Audio Handler
        vendor_id       : [0][0][0][0]
```
